<svg viewBox="0 0 1024 1024" version="1.1" width="30" height="30">
	<path d="M570.625024 510.793728c-10.160128 0-20.32128 9.435136-20.32128 21.046272 0 9.435136 10.160128 18.869248 20.32128 18.869248 15.240192 0 26.126336-9.435136 26.126336-18.869248C596.75136 520.228864 585.865216 510.793728 570.625024 510.793728z" fill="#B5A9B7">	
	</path>
	<path d="M503.856128 412.818432c15.966208 0 26.126336-10.160128 26.126336-25.401344 0-15.966208-10.160128-25.401344-26.126336-25.401344-15.240192 0-29.755392 9.435136-29.755392 25.401344C474.100736 402.658304 488.615936 412.818432 503.856128 412.818432z" fill="#B5A9B7">
	</path>
	<path d="M511.839232 65.717248c-246.009856 0-445.44 199.430144-445.44 445.44s199.430144 445.44 445.44 445.44 445.44-199.430144 445.44-445.44S757.849088 65.717248 511.839232 65.717248zM427.65312 624.01024c-26.852352 0-46.447616-4.354048-71.84896-11.61216l-73.299968 37.013504 21.046272-62.413824c-51.52768-36.287488-82.009088-82.009088-82.009088-137.89184 0-98.701312 92.895232-174.178304 206.111744-174.178304 100.15232 0 189.41952 59.510784 206.83776 143.69792-7.257088-1.451008-13.789184-2.177024-19.595264-2.177024-98.701312 0-174.90432 74.025984-174.90432 163.29216 0 15.240192 2.177024 29.029376 5.80608 43.544576C439.991296 624.01024 433.4592 624.01024 427.65312 624.01024zM730.289152 695.133184l14.5152 52.253696-55.156736-31.207424c-21.046272 4.354048-41.367552 10.886144-62.413824 10.886144-97.250304 0-174.178304-66.768896-174.178304-149.502976s76.929024-149.502976 174.178304-149.502976c92.169216 0 174.90432 66.768896 174.90432 149.502976C802.137088 624.01024 770.930688 665.377792 730.289152 695.133184z" fill="#B5A9B7">
	</path>
	<path d="M360.159232 362.016768c-15.240192 0-31.207424 9.435136-31.207424 25.401344 0 15.240192 15.966208 25.401344 31.207424 25.401344 14.5152 0 26.126336-10.160128 26.126336-25.401344C386.285568 371.45088 374.673408 362.016768 360.159232 362.016768z" fill="#B5A9B7">
	</path>
	<path d="M684.566528 510.793728c-10.886144 0-20.32128 9.435136-20.32128 21.046272 0 9.435136 9.435136 18.869248 20.32128 18.869248 14.5152 0 25.401344-9.435136 25.401344-18.869248C709.967872 520.228864 699.081728 510.793728 684.566528 510.793728z" fill="#B5A9B7">
	</path>
</svg>