<svg viewBox="0 0 1024 1024" version="1.1"  width="30" height="30"><path d="M512 64C264.56 64 64.033 264.565 64.033 512.007 64.033 759.447 264.56 960 512 960c247.415 0 447.967-200.553 447.967-447.993C959.967 264.566 759.414 64 512 64L512 64zM758.643 651.644c-11.555 10.784-31.423-0.977-50.519-27.406-8.286 22.389-19.094 43.001-31.628 61.532 26.998 9.65 44.342 24.68 44.342 41.665 0 29.312-51.855 53.04-115.885 53.04-38.01 0-71.568-8.313-92.773-21.23-20.999 12.918-54.764 21.23-92.749 21.23-64.028 0-115.909-23.728-115.909-53.04 0-16.78 17.37-32.015 44.367-41.665-12.714-18.503-23.316-39.144-31.628-61.532-19.095 26.225-38.937 38.19-50.518 27.406-15.828-14.849-9.831-67.322 13.69-117.068 5.404-11.374 11.168-21.591 17.14-30.47C299.867 359.463 395.138 243.36 512 243.36l0.386 0c116.862 0 212.133 115.911 215.401 260.745 5.97 8.879 11.785 19.095 17.164 30.47C768.294 584.321 774.469 636.795 758.643 651.644L758.643 651.644z" fill="#B5A9B7"></path>
                </svg>